<?xml version="1.0" standalone="no"?>
<!DOCTYPE svg PUBLIC "-//W3C//DTD SVG 20010904//EN"
 "http://www.w3.org/TR/2001/REC-SVG-20010904/DTD/svg10.dtd">
<svg version="1.0" xmlns="http://www.w3.org/2000/svg"
 width="1568.000000pt" height="1568.000000pt" viewBox="0 0 1568.000000 1568.000000"
 preserveAspectRatio="xMidYMid meet">
<metadata>
Created by potrace 1.11, written by Peter Selinger 2001-2013
</metadata>
<g transform="translate(0.000000,1568.000000) scale(0.100000,-0.100000)"
fill="#000000" stroke="none">
<path d="M7563 15668 c-6 -7 -43 -107 -83 -223 -40 -115 -75 -213 -79 -217 -3
-4 -55 85 -114 198 -61 114 -117 209 -129 215 -28 15 -67 3 -78 -24 -8 -19
-120 -578 -120 -600 0 -10 64 -9 92 2 21 8 27 26 62 215 l40 206 99 -190 c107
-207 127 -231 174 -208 25 12 36 36 98 210 39 108 73 199 76 202 3 3 36 -82
74 -189 l68 -195 46 0 c25 0 51 4 58 8 9 5 -16 86 -89 292 -55 157 -105 291
-110 298 -6 6 -25 12 -43 12 -18 0 -37 -6 -42 -12z"/>
<path d="M8304 15650 c-19 -7 -431 -577 -423 -584 2 -2 32 -6 66 -9 l62 -5
153 219 153 219 52 -102 c29 -57 52 -106 52 -110 1 -4 -39 -4 -87 -1 l-88 6
-27 -36 c-15 -20 -27 -40 -27 -45 0 -6 42 -13 93 -16 50 -4 114 -9 140 -12
l48 -6 39 -77 39 -78 67 -6 c37 -4 70 -5 72 -3 2 3 -70 147 -160 322 -167 324
-178 341 -224 324z"/>
<path d="M6393 15538 c-15 -19 -255 -660 -249 -665 11 -11 117 10 125 26 5 9
45 117 91 241 45 124 86 229 90 233 3 4 41 -32 83 -80 l76 -88 -85 -16 c-47
-9 -86 -18 -88 -20 -9 -12 -36 -92 -32 -96 4 -5 221 31 266 43 10 2 36 -21 70
-62 l55 -65 52 5 c107 12 116 -6 -144 289 -217 246 -238 267 -268 267 -18 0
-37 -6 -42 -12z"/>
<path d="M9116 15533 c-6 -21 -126 -551 -129 -572 -3 -22 360 -103 434 -97
111 8 198 70 248 175 22 48 26 70 26 146 0 100 -17 145 -76 204 -50 51 -101
70 -288 112 -97 22 -184 42 -193 45 -10 3 -18 -2 -22 -13z m244 -158 c123 -28
165 -51 201 -109 30 -47 23 -149 -14 -204 -31 -48 -91 -82 -142 -82 -31 0
-260 46 -276 56 -5 3 62 322 76 362 3 7 13 11 22 8 10 -3 70 -17 133 -31z"/>
<path d="M5485 15304 c-126 -42 -231 -77 -232 -78 -3 -2 188 -578 193 -585 7
-8 104 32 104 43 0 6 -34 112 -75 236 -41 123 -72 227 -67 231 15 14 319 109
348 109 62 0 115 -94 92 -161 -12 -36 -46 -54 -195 -103 -62 -21 -113 -42
-113 -48 0 -20 23 -88 30 -88 3 0 53 16 109 35 l104 35 99 -56 99 -55 67 22
c37 12 71 25 76 30 5 4 -42 33 -104 64 -104 52 -111 57 -96 73 88 98 38 296
-89 353 -22 10 -58 19 -80 19 -23 0 -137 -32 -270 -76z"/>
<path d="M9942 15254 c-102 -51 -164 -159 -165 -289 -1 -148 69 -234 248 -305
94 -38 121 -44 185 -44 63 -1 84 4 132 27 209 103 238 412 49 531 -20 13 -85
42 -144 64 -137 53 -222 57 -305 16z m277 -132 c54 -21 109 -50 127 -67 113
-107 26 -325 -131 -325 -44 0 -174 46 -242 85 -80 47 -104 149 -58 241 27 55
64 87 116 103 45 13 76 7 188 -37z"/>
<path d="M4678 14970 c-50 -13 -247 -112 -284 -143 -17 -14 -43 -49 -59 -79
-26 -46 -30 -63 -30 -133 0 -67 4 -89 28 -137 34 -69 92 -129 155 -160 36 -17
65 -22 122 -23 72 0 82 3 191 56 133 65 175 98 209 166 21 41 25 61 25 143 0
84 -3 101 -28 147 -34 66 -88 120 -142 144 -51 23 -137 31 -187 19z m127 -129
c22 -10 52 -31 67 -47 30 -32 58 -102 58 -143 -1 -42 -35 -106 -72 -134 -61
-47 -202 -107 -249 -107 -140 1 -235 180 -157 297 20 31 48 51 119 88 138 71
167 77 234 46z"/>
<path d="M10826 14668 c-81 -145 -145 -267 -142 -273 2 -5 100 -64 217 -129
188 -105 221 -120 270 -124 94 -7 161 40 189 133 9 33 9 48 -3 83 -14 40 -14
42 5 42 50 0 106 56 122 123 10 42 -11 103 -47 140 -27 26 -442 267 -460 267
-3 0 -71 -118 -151 -262z m381 0 c158 -89 179 -117 128 -172 -32 -34 -35 -33
-194 55 -68 38 -127 66 -132 63 -5 -3 -18 -22 -28 -43 l-20 -37 116 -64 c143
-78 173 -103 173 -140 0 -39 -44 -74 -84 -66 -33 7 -326 167 -326 178 0 7 135
256 167 306 16 26 4 31 200 -80z"/>
<path d="M3859 14657 c-12 -26 -31 -35 -112 -52 -37 -8 -55 -45 -38 -82 12
-27 13 -27 27 -9 7 10 15 23 16 28 2 5 30 16 63 23 80 19 105 54 71 100 -14
19 -15 19 -27 -8z"/>
<path d="M7585 14650 c-214 -10 -417 -20 -451 -23 -203 -19 -718 -115 -884
-166 -417 -127 -1207 -464 -1370 -585 -30 -22 -89 -61 -132 -86 -100 -59 -208
-132 -284 -191 -34 -27 -101 -72 -150 -101 -61 -35 -123 -85 -199 -158 -60
-58 -147 -134 -192 -168 -45 -34 -95 -79 -110 -98 -15 -20 -51 -54 -80 -75
-34 -26 -148 -156 -330 -376 -346 -420 -377 -462 -497 -661 -54 -90 -114 -182
-135 -206 -56 -64 -73 -96 -146 -266 -37 -85 -79 -176 -94 -201 -16 -25 -55
-107 -86 -182 -32 -75 -61 -137 -65 -137 -3 0 -38 25 -76 56 -84 69 -175 113
-251 124 -79 11 -212 -5 -285 -35 -34 -14 -72 -25 -84 -25 -12 0 -56 18 -98
40 l-75 40 -161 0 c-175 0 -182 -2 -347 -82 l-62 -30 -7 -66 c-11 -105 3 -614
20 -727 22 -143 20 -199 -6 -246 l-22 -39 -67 0 c-70 0 -79 -6 -79 -51 0 -12
-7 -19 -19 -19 -22 0 -25 -15 -41 -205 -11 -141 -5 -1013 11 -1435 10 -257 15
-306 49 -505 66 -377 110 -745 97 -813 -3 -14 -1 -36 4 -49 4 -12 24 -114 43
-225 19 -112 46 -240 61 -286 14 -45 71 -173 125 -284 55 -110 112 -240 127
-287 15 -47 42 -106 59 -131 44 -62 98 -171 127 -258 13 -39 36 -89 50 -109
32 -46 187 -393 250 -558 25 -66 57 -163 71 -215 32 -117 132 -585 142 -660 9
-70 150 -501 196 -600 19 -41 72 -142 117 -225 46 -83 89 -176 98 -209 10 -40
28 -75 53 -105 81 -97 317 -480 413 -669 23 -46 59 -102 79 -124 81 -89 237
-348 238 -397 1 -9 22 -37 48 -64 31 -31 127 -179 277 -427 l230 -379 1967 -1
1967 0 7 35 c3 20 4 142 1 273 -6 269 -16 336 -86 537 -23 66 -49 149 -57 184
-10 43 -26 77 -46 100 -17 19 -59 78 -93 131 -34 52 -93 129 -132 170 -39 41
-84 102 -101 136 -28 56 -37 64 -119 112 -128 74 -460 330 -438 338 23 9 110
-2 239 -31 61 -14 206 -34 325 -45 200 -19 220 -22 275 -50 l59 -30 286 0
c157 1 403 6 546 12 143 6 292 11 330 12 l70 1 -1 -30 c-3 -59 -115 -309 -146
-326 -10 -5 -27 -29 -39 -52 -12 -23 -49 -71 -83 -107 -118 -123 -160 -198
-277 -490 l-82 -205 -7 -160 c-8 -186 -21 -240 -62 -261 l-29 -15 30 -35 c36
-40 46 -72 38 -121 -4 -23 -1 -43 10 -59 l15 -24 1968 0 1967 0 37 70 c115
221 555 904 646 1005 15 17 59 92 98 167 82 159 182 322 232 381 19 22 55 77
80 122 25 45 63 114 85 154 22 40 66 107 98 149 61 82 199 337 308 568 55 116
72 165 94 270 32 152 67 266 94 311 27 43 51 176 51 282 0 175 41 355 100 438
17 23 30 50 30 60 0 32 46 185 85 283 51 130 99 222 155 305 27 39 54 90 60
115 12 45 317 714 415 911 66 130 80 179 100 344 9 72 21 148 27 170 6 22 10
86 9 142 -2 98 18 215 40 229 5 3 9 42 9 88 0 73 16 197 74 581 21 139 39 555
44 1040 9 766 3 918 -40 1043 l-22 62 -67 0 c-72 0 -92 10 -110 57 -13 36 -11
143 7 273 20 152 25 636 6 697 -19 64 -55 99 -117 118 -32 9 -61 25 -70 38
-15 21 -21 22 -183 22 -184 0 -156 7 -316 -78 -35 -18 -44 -19 -93 -9 -30 6
-79 23 -108 37 -44 21 -69 25 -138 25 -94 0 -188 -15 -230 -37 -16 -8 -62 -48
-103 -90 -42 -42 -78 -72 -83 -67 -4 5 -47 99 -96 209 -115 260 -214 459 -260
519 -20 27 -55 78 -77 115 -23 36 -69 102 -103 146 -34 44 -89 121 -123 170
-101 149 -243 309 -457 517 -112 108 -212 201 -223 207 -11 6 -46 50 -78 98
-167 252 -651 641 -1272 1022 -244 149 -321 186 -657 316 -336 129 -594 208
-825 250 -52 9 -126 26 -163 36 -37 11 -118 24 -180 29 -162 14 -243 29 -271
51 -22 18 -42 19 -278 18 -139 -1 -428 -10 -643 -19z m545 -26 c0 -2 -7 -4
-15 -4 -8 0 -15 4 -15 10 0 5 7 7 15 4 8 -4 15 -8 15 -10z m-5038 -9424 l31
-45 -37 35 c-21 19 -47 53 -57 75 l-20 40 26 -30 c14 -16 39 -50 57 -75z m438
-527 c0 -13 -2 -23 -4 -23 -2 0 -27 37 -56 83 l-52 82 55 -60 c33 -35 56 -69
57 -82z"/>
<path d="M3835 14516 c-17 -12 -18 -31 -16 -292 1 -257 9 -444 17 -444 2 0 26
14 54 31 l50 31 -7 264 c-3 145 -3 264 1 264 3 0 52 -23 108 -51 l101 -51 -76
-49 c-71 -45 -77 -51 -76 -81 3 -83 2 -83 133 0 l120 74 73 -36 c40 -20 79
-36 86 -36 7 0 37 15 66 34 l54 33 -316 162 c-173 88 -323 161 -334 161 -11 0
-28 -6 -38 -14z"/>
<path d="M11510 14304 c-85 -124 -163 -238 -172 -253 l-18 -27 46 -33 c26 -18
50 -29 54 -24 5 4 65 91 135 193 70 102 132 190 139 196 8 9 45 -12 146 -82
151 -105 180 -133 180 -172 0 -34 -31 -86 -65 -108 -46 -30 -78 -20 -195 61
-61 41 -116 78 -124 81 -9 4 -25 -9 -42 -35 -31 -48 -40 -35 87 -122 l77 -52
12 -110 13 -109 60 -42 c32 -22 85 -64 116 -92 l56 -52 234 68 c128 38 243 71
255 74 l23 6 -25 -113 c-14 -61 -26 -114 -29 -116 -2 -3 -30 22 -63 54 l-59
58 -56 -12 c-59 -13 -66 -22 -36 -43 11 -8 58 -51 105 -96 l85 -82 -19 -86
-19 -87 47 -43 c26 -24 49 -43 52 -44 7 0 151 667 150 696 0 29 -19 44 -57 44
-18 0 -177 -41 -354 -91 -176 -50 -323 -89 -325 -86 -5 4 -44 214 -44 234 0 9
15 13 47 13 83 0 163 67 199 167 24 67 13 128 -32 190 -21 27 -380 285 -416
298 -8 3 -70 -79 -168 -221z"/>
<path d="M14194 14222 c14 -6 16 -11 7 -16 -18 -12 5 -35 57 -57 52 -22 64
-24 38 -4 -11 9 -17 22 -13 34 3 14 -2 22 -22 30 -33 13 -95 25 -67 13z"/>
<path d="M3203 14045 c-214 -180 -228 -198 -228 -280 0 -52 4 -67 28 -98 38
-50 68 -68 121 -74 70 -8 110 12 253 132 74 62 142 115 152 118 28 7 59 -10
76 -43 13 -25 14 -34 3 -55 -8 -14 -94 -93 -193 -176 -99 -83 -181 -154 -182
-158 -1 -3 14 -25 35 -49 l37 -42 190 160 c104 88 200 177 212 198 68 111 -21
272 -151 272 -64 0 -91 -16 -240 -142 -110 -92 -134 -109 -159 -106 -19 2 -38
13 -51 31 -19 26 -19 30 -6 55 13 22 125 122 318 282 l43 35 -36 43 c-20 23
-40 42 -43 42 -4 0 -84 -65 -179 -145z"/>
<path d="M2604 13491 c-150 -156 -172 -183 -183 -225 -35 -138 101 -256 236
-205 15 5 89 71 164 145 137 135 156 147 198 124 10 -5 24 -23 31 -40 17 -40
13 -46 -182 -246 l-162 -165 42 -42 42 -41 31 29 c17 17 100 103 185 192 169
179 185 206 164 284 -31 114 -144 177 -244 135 -18 -7 -91 -73 -162 -145 -139
-142 -160 -153 -202 -108 -42 44 -32 61 143 242 l164 170 -37 38 c-20 20 -41
37 -47 37 -5 -1 -87 -81 -181 -179z"/>
<path d="M12915 13343 c-71 -37 -105 -90 -105 -163 0 -59 26 -100 145 -234 59
-65 110 -128 115 -140 17 -47 -45 -105 -92 -87 -13 5 -95 90 -183 190 -88 100
-162 181 -165 181 -3 0 -23 -18 -44 -39 l-39 -40 33 -38 c228 -260 306 -344
335 -357 116 -55 265 34 265 158 0 65 -14 88 -146 237 -109 124 -122 147 -108
184 10 26 61 47 83 35 11 -5 88 -86 171 -180 l152 -170 26 19 c15 10 35 28 45
39 18 19 15 23 -144 202 -170 191 -206 220 -279 219 -19 0 -48 -7 -65 -16z"/>
<path d="M2213 13056 c-18 -24 -33 -45 -33 -49 0 -7 469 -377 479 -377 8 0 71
74 71 84 0 4 -454 366 -475 378 -5 3 -25 -13 -42 -36z"/>
<path d="M13279 12639 c-129 -94 -240 -177 -248 -184 -11 -11 -8 -20 21 -59
l35 -45 234 170 c129 94 240 177 248 184 12 12 10 20 -14 55 -16 22 -31 43
-35 45 -4 2 -112 -73 -241 -166z"/>
<path d="M1976 12764 c-33 -33 -19 -66 109 -264 69 -106 125 -193 123 -195 -2
-1 -97 15 -213 36 -115 21 -224 38 -242 38 -34 1 -63 -27 -63 -61 0 -10 93
-124 207 -254 206 -235 207 -235 224 -213 57 75 62 60 -79 220 -70 80 -133
152 -140 161 -10 13 22 9 180 -18 227 -40 263 -42 278 -15 5 11 10 28 10 39 0
11 -52 100 -115 197 -64 98 -114 179 -112 181 2 2 91 -25 197 -61 107 -36 197
-65 200 -65 4 0 47 68 58 92 3 7 -573 198 -596 198 -6 0 -18 -7 -26 -16z"/>
<path d="M13405 12444 c-137 -92 -252 -168 -254 -170 -4 -4 252 -397 275 -423
11 -12 20 -10 59 13 30 18 45 33 41 42 -3 7 -52 85 -110 173 l-104 159 200
133 c109 73 201 137 204 141 6 10 -43 98 -54 98 -4 0 -119 -75 -257 -166z"/>
<path d="M7393 564 c-7 -3 -13 -17 -13 -31 0 -21 2 -24 15 -13 12 10 21 10 44
0 40 -16 75 -10 79 16 2 17 -3 20 -35 20 -21 1 -47 4 -58 7 -11 3 -26 4 -32 1z"/>
<path d="M3907 483 c-4 -3 -7 -89 -7 -190 l0 -183 35 0 35 0 0 128 1 127 130
-133 c178 -183 173 -185 177 66 l2 192 -35 0 -35 0 0 -127 0 -128 -128 128
c-119 119 -153 142 -175 120z"/>
<path d="M6546 468 c-7 -13 -53 -90 -101 -173 -49 -82 -93 -156 -99 -163 -9
-9 -23 -1 -61 39 -44 44 -48 51 -32 60 44 25 62 131 32 189 -29 56 -44 60
-222 60 l-163 0 0 -185 0 -185 35 0 35 0 0 150 0 150 110 0 c97 0 112 -2 130
-20 25 -25 26 -61 1 -91 -17 -21 -29 -24 -110 -27 l-91 -4 0 -29 0 -29 68 0
67 0 43 -50 43 -50 97 0 97 0 74 131 c41 71 78 128 83 127 5 -2 22 -27 38 -56
l30 -52 -51 0 c-38 0 -55 -5 -65 -17 -28 -37 -18 -43 69 -43 l82 0 27 -45 c26
-43 30 -45 74 -45 46 0 46 0 32 23 -8 12 -54 90 -103 172 -48 83 -95 158 -103
168 -21 24 -49 21 -66 -5z"/>
<path d="M7419 473 c-9 -10 -27 -38 -41 -63 -14 -25 -60 -102 -102 -172 l-75
-128 44 0 43 0 68 118 c100 172 86 162 123 98 17 -31 31 -58 31 -61 0 -3 -22
-5 -49 -5 -41 0 -51 -4 -65 -25 -9 -13 -16 -27 -16 -30 0 -3 38 -5 85 -5 l85
0 28 -45 c25 -42 30 -45 69 -45 24 0 43 3 42 8 0 4 -48 88 -107 187 -112 186
-131 206 -163 168z"/>
<path d="M9911 473 c-5 -10 -28 -89 -51 -176 -23 -87 -44 -165 -47 -173 -4
-11 4 -14 34 -14 l38 0 29 110 c16 61 32 112 35 115 4 2 29 -49 56 -113 47
-111 51 -117 79 -117 28 0 32 6 79 118 28 65 53 114 57 110 4 -4 19 -56 35
-115 l28 -108 38 0 38 0 -14 48 c-7 26 -28 101 -45 167 -39 150 -45 165 -70
165 -25 0 -38 -21 -96 -158 -26 -62 -48 -111 -50 -109 -2 1 -26 56 -54 122
-28 65 -56 125 -62 132 -15 19 -46 16 -57 -4z"/>
<path d="M10847 483 c-4 -3 -7 -89 -7 -190 l0 -183 35 0 35 0 0 128 1 127 128
-133 c104 -107 134 -133 153 -130 l23 3 3 193 2 192 -35 0 -35 0 0 -127 0
-127 -128 127 c-119 118 -154 142 -175 120z"/>
<path d="M3070 458 c-18 -13 -42 -35 -53 -50 -42 -56 -38 -174 9 -235 42 -55
68 -63 214 -63 l130 0 0 34 0 34 -125 4 c-121 3 -125 4 -152 31 -24 23 -28 36
-28 82 0 46 4 59 28 82 27 27 31 28 152 31 l125 4 0 34 0 34 -134 0 c-122 0
-136 -2 -166 -22z"/>
<path d="M3491 463 c-121 -60 -116 -274 10 -338 39 -21 219 -21 259 0 89 46
124 201 63 284 -44 59 -77 71 -192 71 -78 0 -115 -5 -140 -17z m256 -86 c24
-23 28 -36 28 -82 0 -46 -4 -59 -28 -82 -25 -25 -35 -28 -112 -32 l-85 -3 -35
35 c-30 30 -35 42 -35 82 0 40 5 52 35 82 l35 35 85 -3 c77 -4 87 -7 112 -32z"/>
<path d="M4340 295 l0 -185 35 0 35 0 0 150 0 150 125 0 125 0 0 35 0 35 -160
0 -160 0 0 -185z"/>
<path d="M4690 295 l0 -185 170 0 170 0 0 35 0 35 -130 0 -130 0 0 115 0 115
130 0 130 0 0 35 0 35 -170 0 -170 0 0 -185z"/>
<path d="M5070 294 l0 -185 148 3 c144 3 150 4 184 30 74 56 92 197 34 272
-45 59 -68 66 -226 66 l-140 0 0 -186z m270 101 c32 -16 60 -61 60 -95 0 -38
-28 -89 -59 -104 -20 -11 -57 -16 -111 -16 l-80 0 0 115 0 115 80 0 c53 0 91
-5 110 -15z"/>
<path d="M5520 295 l0 -185 165 0 165 0 0 35 0 35 -130 0 -130 0 0 115 0 115
130 0 130 0 0 35 0 35 -165 0 -165 0 0 -185z"/>
<path d="M6910 473 c-115 -43 -147 -215 -57 -311 42 -45 68 -52 202 -52 l125
0 0 35 0 35 -110 0 c-133 0 -160 11 -184 71 -17 41 -15 63 7 107 20 41 57 52
177 52 l110 0 0 35 0 35 -127 -1 c-71 0 -135 -3 -143 -6z"/>
<path d="M7751 458 c-58 -39 -75 -71 -79 -147 -5 -83 19 -137 75 -176 34 -23
47 -25 141 -25 109 0 139 9 179 52 76 81 67 228 -18 289 -30 21 -47 24 -149
27 -107 3 -117 2 -149 -20z m240 -65 c16 -9 35 -34 44 -56 20 -49 7 -95 -36
-132 -26 -21 -40 -25 -99 -25 -38 0 -80 4 -94 10 -33 12 -66 66 -66 105 0 38
33 93 63 105 40 16 156 12 188 -7z"/>
<path d="M8310 295 l0 -185 135 0 c149 0 174 7 218 59 76 91 51 248 -46 294
-27 13 -65 17 -171 17 l-136 0 0 -185z m271 98 c61 -36 69 -125 15 -179 -34
-34 -35 -34 -125 -34 l-91 0 0 115 0 115 86 0 c63 0 94 -5 115 -17z"/>
<path d="M8829 460 c-115 -61 -115 -250 0 -327 30 -20 46 -23 138 -23 58 0
114 5 126 11 45 23 78 64 93 116 26 89 -6 182 -76 222 -52 29 -226 30 -281 1z
m262 -88 c23 -26 29 -42 29 -78 0 -39 -5 -51 -34 -80 -33 -33 -36 -34 -116
-34 -80 0 -83 1 -116 34 -29 29 -34 41 -34 81 0 40 5 52 35 82 l35 35 86 -3
c82 -4 87 -5 115 -37z"/>
<path d="M9285 469 c-32 -16 -47 -47 -47 -98 0 -38 5 -50 31 -73 30 -27 35
-28 146 -28 103 0 117 -2 136 -21 18 -18 19 -23 6 -42 -14 -21 -23 -22 -166
-25 l-151 -3 0 -34 0 -35 165 0 c190 0 208 6 225 72 15 52 -5 118 -39 135 -9
4 -72 10 -140 13 -103 4 -126 8 -135 23 -8 12 -8 22 0 35 10 15 31 17 158 20
l146 3 0 34 0 35 -157 -1 c-87 0 -167 -5 -178 -10z"/>
<path d="M10390 343 c0 -119 3 -142 20 -170 32 -53 72 -68 180 -68 81 0 100 3
131 23 56 34 69 78 69 227 l0 125 -35 0 -35 0 0 -109 c0 -59 -5 -122 -10 -138
-14 -39 -49 -57 -113 -57 -121 -1 -137 21 -137 189 l0 115 -35 0 -35 0 0 -137z"/>
<path d="M11280 295 l0 -185 135 0 c101 0 143 4 165 15 67 35 109 135 91 217
-11 50 -36 85 -81 116 -30 20 -44 22 -171 22 l-139 0 0 -185z m292 76 c27 -30
30 -39 25 -84 -3 -41 -11 -56 -36 -79 -29 -26 -37 -28 -121 -28 l-90 0 0 116
0 116 96 -4 c94 -3 96 -3 126 -37z"/>
<path d="M11804 466 c-64 -28 -100 -105 -91 -193 7 -66 37 -114 90 -143 33
-19 50 -21 146 -18 99 3 110 5 143 30 49 37 72 99 66 178 -5 67 -24 101 -78
138 -29 19 -45 22 -139 22 -66 -1 -118 -6 -137 -14z m226 -71 c34 -17 60 -62
60 -100 0 -38 -26 -83 -60 -100 -35 -18 -148 -20 -184 -3 -77 35 -81 163 -7
203 35 19 154 19 191 0z"/>
<path d="M12247 469 c-40 -23 -59 -98 -36 -142 25 -49 47 -57 161 -57 124 0
158 -9 158 -43 0 -43 -15 -47 -172 -47 l-148 0 0 -35 0 -35 166 0 166 0 29 29
c39 40 42 115 5 158 -24 27 -27 28 -152 33 -107 4 -129 8 -138 23 -8 12 -8 22
0 35 10 15 31 17 153 20 l141 3 0 34 0 35 -157 0 c-89 0 -166 -5 -176 -11z"/>
<path d="M4800 300 l0 -30 105 0 105 0 0 30 0 30 -105 0 -105 0 0 -30z"/>
<path d="M5630 300 l0 -30 105 0 105 0 0 30 0 30 -105 0 -105 0 0 -30z"/>
<path d="M4450 290 l0 -30 95 0 95 0 0 30 0 30 -95 0 -95 0 0 -30z"/>
<path d="M6970 64 c6 -14 15 -35 22 -47 11 -21 12 -20 29 18 24 55 24 55 -21
55 -38 0 -39 -1 -30 -26z"/>
</g>
</svg>
